<?xml version="1.0" standalone="no"?>
<!DOCTYPE svg PUBLIC "-//W3C//DTD SVG 20010904//EN"
 "http://www.w3.org/TR/2001/REC-SVG-20010904/DTD/svg10.dtd">
<svg version="1.0" xmlns="http://www.w3.org/2000/svg"
 width="512.000000pt" height="512.000000pt" viewBox="0 0 512.000000 512.000000"
 preserveAspectRatio="xMidYMid meet">
<metadata>
Created by potrace 1.14, written by Peter Selinger 2001-2017
</metadata>
<g transform="translate(0.000000,512.000000) scale(0.100000,-0.100000)"
fill="#000000" stroke="none">
<path d="M2467 5114 c-1 -1 -46 -4 -99 -8 -53 -3 -103 -8 -110 -11 -7 -2 -35
-6 -63 -9 -27 -3 -60 -8 -71 -10 -12 -2 -37 -7 -55 -10 -19 -3 -49 -10 -66
-15 -18 -5 -33 -8 -33 -6 0 3 -11 0 -25 -5 -14 -5 -36 -12 -48 -14 -45 -8
-219 -68 -309 -106 -568 -236 -1038 -674 -1312 -1220 -81 -161 -181 -435 -201
-552 -3 -17 -8 -34 -10 -37 -2 -4 -6 -26 -10 -51 -4 -25 -8 -47 -10 -50 -2 -3
-7 -33 -10 -65 -4 -33 -9 -69 -11 -80 -9 -50 -18 -211 -18 -330 1 -288 41
-521 139 -820 78 -236 249 -548 414 -754 335 -417 791 -724 1297 -870 90 -26
300 -70 379 -79 79 -9 595 -9 665 0 88 12 232 40 288 57 17 5 32 8 32 5 0 -2
17 2 38 10 20 7 55 19 77 25 305 95 622 268 880 481 76 63 289 284 357 370
292 372 469 789 535 1260 10 71 10 588 0 660 -12 93 -17 123 -28 170 -5 25
-11 54 -13 65 -2 11 -9 40 -16 65 -7 25 -13 52 -15 60 -29 138 -159 441 -271
630 -40 66 -178 267 -193 280 -4 3 -31 34 -61 70 -296 349 -716 629 -1157 770
-99 32 -264 73 -338 85 -22 3 -53 8 -70 11 -101 16 -230 26 -368 28 -59 1
-109 1 -110 0z"/>
</g>
</svg>
